<svg width="165" height="103" viewBox="0 0 165 103" fill="none" xmlns="http://www.w3.org/2000/svg">
<path d="M40.664 102.864C32.888 102.864 25.928 100.8 19.784 96.672C13.736 92.544 8.984 86.64 5.528 78.96C2.168 71.184 0.488 62.064 0.488 51.6C0.488 41.136 2.168 32.064 5.528 24.384C8.984 16.608 13.736 10.656 19.784 6.52799C25.928 2.39999 32.888 0.335996 40.664 0.335996C48.44 0.335996 55.352 2.39999 61.4 6.52799C67.544 10.656 72.344 16.608 75.8 24.384C79.256 32.064 80.984 41.136 80.984 51.6C80.984 62.064 79.256 71.184 75.8 78.96C72.344 86.64 67.544 92.544 61.4 96.672C55.352 100.8 48.44 102.864 40.664 102.864ZM40.664 93.36C46.52 93.36 51.656 91.728 56.072 88.464C60.584 85.2 64.088 80.448 66.584 74.208C69.08 67.968 70.328 60.432 70.328 51.6C70.328 42.768 69.08 35.232 66.584 28.992C64.088 22.752 60.584 18 56.072 14.736C51.656 11.472 46.52 9.83999 40.664 9.83999C34.808 9.83999 29.624 11.472 25.112 14.736C20.696 18 17.24 22.752 14.744 28.992C12.248 35.232 11 42.768 11 51.6C11 60.432 12.248 67.968 14.744 74.208C17.24 80.448 20.696 85.2 25.112 88.464C29.624 91.728 34.808 93.36 40.664 93.36ZM164.383 92.784V102H93.6785V94.656L135.583 53.616C140.863 48.432 144.415 43.968 146.239 40.224C148.159 36.384 149.119 32.544 149.119 28.704C149.119 22.752 147.055 18.144 142.927 14.88C138.895 11.52 133.087 9.83999 125.503 9.83999C113.695 9.83999 104.527 13.584 97.9985 21.072L90.6545 14.736C94.5905 10.128 99.5825 6.576 105.631 4.08C111.775 1.584 118.687 0.335996 126.367 0.335996C136.639 0.335996 144.751 2.784 150.703 7.68C156.751 12.48 159.775 19.104 159.775 27.552C159.775 32.736 158.623 37.728 156.319 42.528C154.015 47.328 149.647 52.848 143.215 59.088L108.943 92.784H164.383Z" fill="#333333"/>
</svg>
