<svg width="162" height="103" viewBox="0 0 162 103" fill="none" xmlns="http://www.w3.org/2000/svg">
<path d="M40.664 102.864C32.888 102.864 25.928 100.8 19.784 96.672C13.736 92.544 8.984 86.64 5.528 78.96C2.168 71.184 0.488 62.064 0.488 51.6C0.488 41.136 2.168 32.064 5.528 24.384C8.984 16.608 13.736 10.656 19.784 6.52799C25.928 2.39999 32.888 0.335996 40.664 0.335996C48.44 0.335996 55.352 2.39999 61.4 6.52799C67.544 10.656 72.344 16.608 75.8 24.384C79.256 32.064 80.984 41.136 80.984 51.6C80.984 62.064 79.256 71.184 75.8 78.96C72.344 86.64 67.544 92.544 61.4 96.672C55.352 100.8 48.44 102.864 40.664 102.864ZM40.664 93.36C46.52 93.36 51.656 91.728 56.072 88.464C60.584 85.2 64.088 80.448 66.584 74.208C69.08 67.968 70.328 60.432 70.328 51.6C70.328 42.768 69.08 35.232 66.584 28.992C64.088 22.752 60.584 18 56.072 14.736C51.656 11.472 46.52 9.83999 40.664 9.83999C34.808 9.83999 29.624 11.472 25.112 14.736C20.696 18 17.24 22.752 14.744 28.992C12.248 35.232 11 42.768 11 51.6C11 60.432 12.248 67.968 14.744 74.208C17.24 80.448 20.696 85.2 25.112 88.464C29.624 91.728 34.808 93.36 40.664 93.36ZM128.698 44.4C139.258 44.976 147.274 47.856 152.746 53.04C158.314 58.128 161.098 64.8 161.098 73.056C161.098 78.816 159.706 83.952 156.922 88.464C154.138 92.88 150.01 96.384 144.538 98.976C139.066 101.568 132.394 102.864 124.522 102.864C117.226 102.864 110.314 101.712 103.786 99.408C97.3535 97.008 92.1695 93.84 88.2335 89.904L93.2735 81.696C96.6335 85.152 101.098 87.984 106.666 90.192C112.234 92.304 118.186 93.36 124.522 93.36C132.778 93.36 139.162 91.584 143.674 88.032C148.186 84.384 150.442 79.392 150.442 73.056C150.442 66.816 148.186 61.92 143.674 58.368C139.162 54.816 132.346 53.04 123.226 53.04H116.026V45.408L143.962 10.416H92.4095V1.19999H157.21V8.54399L128.698 44.4Z" fill="#333333"/>
</svg>
